<svg xmlns="http://www.w3.org/2000/svg" viewBox="0 0 500 120" width="500" height="120" role="img" aria-label="Directive">
  <rect width="500" height="120" fill="#FFFFFF"/>
  <!-- Icon: hexagon + slash -->
  <polygon
    points="60.0000,20.0000 94.6410,40.0000 94.6410,80.0000 60.0000,100.0000 25.3590,80.0000 25.3590,40.0000"
    fill="none"
    stroke="#0F172A"
    stroke-width="3"
    stroke-linejoin="round"
  />
  <line
    x1="52.5836" y1="82.8254" x2="67.4164" y2="37.1746"
    stroke="#60A5FA"
    stroke-width="6"
    stroke-linecap="round"
  />
  <!-- Wordmark: "directive" — Ubuntu Sans Medium outlines -->
  <path d="M157.093083105046 91.0671006239854Q150.20346108969156 91.0671006239854 145.0973973129735 88.2391780176204Q139.9913335362554 85.41125541125541 137.20670097318046 80.14502058813582Q134.4220684101055 74.87878576501623 134.4220684101055 67.60605849228897Q134.4220684101055 60.510814055735935 136.81709058357006 55.2012891893263Q139.21211275703462 49.89176432291667 143.75756730248918 46.93289092092803Q148.3030218479437 43.9740175189394 154.70994825487014 43.9740175189394Q158.38741946530033 43.9740175189394 161.20991760518126 44.93180180008794Q164.03241574506222 45.88958608123647 165.78783439867425 46.958848036728895V24.2489293746618L174.30522968242695 22.81385281385282V88.58657902969426Q172.46323094223484 89.16233871922348 169.78573225277324 89.73917907450623Q167.10823356331167 90.31601942978897 163.9220821496212 90.69156002688717Q160.73593073593074 91.0671006239854 157.093083105046 91.0671006239854ZM157.17966319162608 83.57785972165856Q160.31383696056548 83.57785972165856 162.4577642003179 83.27266808712122Q164.60169144007034 82.96747645258388 165.78783439867425 82.67743527631222V54.538991688649894Q164.40039168188582 53.46756840165043 161.72183346438717 52.451343618946154Q159.04327524688853 51.435118836241884 155.82468272287608 51.435118836241884Q152.4350913572105 51.435118836241884 150.04549365022996 52.59420287557495Q147.65589594324945 53.75328691490801 146.13642176508387 55.896133488906926Q144.6169475869183 58.03898006290585 143.93729602103625 60.961047416125545Q143.2576444551542 63.88311476934524 143.2576444551542 67.35064089556278Q143.2576444551542 72.44369440780574 144.96650993049917 76.07355291193181Q146.67537540584416 79.7034114160579 149.8160543070211 81.64063556885823Q152.95673320819805 83.57785972165856 157.17966319162608 83.57785972165856Z M188.06277584719967 90.0V44.92639847132035H196.63861163250812V90.0ZM192.39398378314394 35.31605113636364Q190.09526768804113 35.31605113636364 188.4437409107819 33.77816336495536Q186.79221413352272 32.24027559354708 186.79221413352272 29.625540068655305Q186.79221413352272 27.069245045319263 188.4437409107819 25.531357273910984Q190.09526768804113 23.993469502502705 192.39398378314394 23.993469502502705Q194.69269987824674 23.993469502502705 196.34422665550596 25.531357273910984Q197.99575343276516 27.069245045319263 197.99575343276516 29.625540068655305Q197.99575343276516 32.24027559354708 196.34422665550596 33.77816336495536Q194.69269987824674 35.31605113636364 192.39398378314394 35.31605113636364Z M210.39615779728086 90.0V47.11687888933983Q213.041194238704 46.08007918188582 217.2338444433171 45.05626860119048Q221.4264946479302 44.032458020495135 227.0520389441288 44.032458020495135Q228.72952283718885 44.032458020495135 230.58883336715368 44.248908236945354Q232.4481438971185 44.46535845339557 234.0736924208604 44.782458548938045Q235.69924094460228 45.099558644480524 236.61699831743778 45.47185724431819L235.036901168493 52.67321830188041Q233.94814495400433 52.298758370535715 231.72736361945346 51.88100839590098Q229.5065822849026 51.46325842126623 226.35507558847402 51.46325842126623Q223.74038233901516 51.46325842126623 221.73064789214692 51.855030142383654Q219.72091344527868 52.246801863501084 218.9719935825893 52.56498262479708V90.0Z M264.8053216314935 91.03679970745401Q256.8139754126082 91.03679970745401 251.78150259571157 87.97835709212663Q246.74902977881493 84.91991447679925 244.3561689368574 79.61038961038962Q241.96330809489987 74.30086474397999 241.96330809489987 67.57575757575758Q241.96330809489987 59.640690526921 244.91893949962798 54.37553636955492Q247.87457090435606 49.11038221218885 252.56072337493237 46.47077023724973Q257.24687584550867 43.83115826231061 262.4373583772998 43.83115826231061Q268.3464598552489 43.83115826231061 272.6419212704613 46.29652939833604Q276.9373826856737 48.76190053436147 279.2869534843412 53.75216397372159Q281.63652428300867 58.742427413081714 281.63652428300867 66.33117411559795Q281.63652428300867 67.10607223180466 281.57916444720644 68.09742056446159Q281.5218046114042 69.08876889711851 281.4352245248241 69.8939679298566H250.82702372497295Q251.20148365631763 76.33115297788149 254.81294970491746 79.92528609899216Q258.4244157535173 83.51941922010282 265.60187533820346 83.51941922010282Q269.7360639035444 83.51941922010282 272.74689381256763 82.7531875676407Q275.7577237215909 81.98695591517857 277.27938036897996 81.26833696902057L278.60189858969153 88.35497835497836Q277.10838152732686 89.16017738771644 273.26421300054113 90.09848854758522Q269.4200444737554 91.03679970745401 264.8053216314935 91.03679970745401ZM250.94390472808442 63.458859662472946H273.14294592126623Q273.0563658346861 59.77490445752164 271.83992195955085 56.99461569517722Q270.6234780844156 54.21432693283279 268.3226217955222 52.65264337713069Q266.02176550662875 51.09095982142858 262.5520780489042 51.09095982142858Q259.0239500896239 51.09095982142858 256.51855204528545 52.84311534006359Q254.01315400094697 54.5952708586986 252.622469286898 57.40477987182089Q251.23178457284902 60.21428888494319 250.94390472808442 63.458859662472946Z M312.85947329038146 91.03679970745401Q305.36595200047344 91.03679970745401 300.44927952093474 88.03787825943587Q295.5326070413961 85.03895681141775 293.09429482464145 79.71536215249594Q290.65598260788687 74.39176749357414 290.65598260788687 67.5216397372159Q290.65598260788687 60.64935064935065 293.2652936662946 55.31168619791667Q295.87460472470235 49.974021746482684 300.7620569534632 46.90259000439664Q305.649509182224 43.83115826231061 312.424411525974 43.83115826231061Q316.0023346607819 43.83115826231061 319.14951869419644 44.45128866088339Q322.2967027276109 45.07141905945617 324.4525595660849 46.10821876691018L322.4698629007711 53.13858098281926Q320.710121584145 52.38749978862284 318.54561941964283 51.86801926914232Q316.3811172551407 51.3485387496618 313.1127295556006 51.3485387496618Q306.4049553148674 51.3485387496618 302.9482569839015 55.658048819669915Q299.49155865293557 59.96755888967803 299.49155865293557 67.5216397372159Q299.49155865293557 72.35063032670455 300.9093022862554 75.95234924580629Q302.3270459195752 79.55406816490802 305.5229233250473 81.53674369250541Q308.71880073051943 83.51941922010282 313.9828530844156 83.51941922010282Q317.02180144074674 83.51941922010282 319.6181233723958 82.85275678097943Q322.2144453040449 82.18609434185606 323.7642415364583 81.46747539569805L325.2317803453057 88.64069686823593Q323.3897816051136 89.53463731906115 320.0131582284902 90.28571851325758Q316.6365348518668 91.03679970745401 312.85947329038146 91.03679970745401Z M349.9460935386228 90.9805205374053Q343.80971404897184 90.9805205374053 340.3086238712459 88.83441082842938Q336.80753369352 86.68830111945346 335.39519338896775 82.56491921164772Q333.9828530844156 78.441537303842 333.9828530844156 72.49565091484037V32.47403759977002L342.558688869724 31.03896103896104V44.92639847132035H359.45909640489714V52.09745861235119H342.558688869724V72.79001475412608Q342.558688869724 76.87656947544643 343.48617223434115 79.23262426863502Q344.4136555989583 81.5886790618236 346.2935199159564 82.5540491409632Q348.1733842329545 83.51941922010282 350.97208658854163 83.51941922010282Q353.86817568824404 83.51941922010282 356.0759678960362 82.86682657349161Q358.28376010382846 82.21423392688041 359.75129891267585 81.58003373579545L361.27727822307895 88.40909619352003Q359.64090190408547 89.2445961427895 356.696098294609 90.1125583400974Q353.75129468513256 90.9805205374053 349.9460935386228 90.9805205374053Z M369.81840587797615 90.0V44.92639847132035H378.39424166328456V90.0ZM374.1496138139204 35.31605113636364Q371.8508977188176 35.31605113636364 370.1993709415584 33.77816336495536Q368.5478441642992 32.24027559354708 368.5478441642992 29.625540068655305Q368.5478441642992 27.069245045319263 370.1993709415584 25.531357273910984Q371.8508977188176 23.993469502502705 374.1496138139204 23.993469502502705Q376.4483299090232 23.993469502502705 378.09985668628235 25.531357273910984Q379.7513834635416 27.069245045319263 379.7513834635416 29.625540068655305Q379.7513834635416 32.24027559354708 378.09985668628235 33.77816336495536Q376.4483299090232 35.31605113636364 374.1496138139204 35.31605113636364Z M403.4808111810064 90.0Q401.31630901650425 85.49567416632846 399.05115697290984 80.28463784750406Q396.7860049293154 75.07360152867966 394.60743297230107 69.34524602188176Q392.4288610152867 63.616890515083874 390.4104601046739 57.48701615767045Q388.39205919406106 51.35714180025704 386.66478012547344 44.92639847132035H395.72763418222394Q397.05663639745666 50.42205149993236 398.9949412160105 56.82679543763528Q400.9332460345643 63.2315393753382 403.175661821902 69.36031192928166Q405.4180776092397 75.48908448322511 407.4440431801271 80.17089315307089Q408.97866781655836 76.70336702685336 410.6280121245941 72.3094382017722Q412.2773564326298 67.91550937669102 413.8541904465976 63.18824933204816Q415.4310244605654 58.460989287405305 416.80439738484165 53.7618688277868Q418.17777030911793 49.06274836816829 419.16045217803025 44.92639847132035H427.8769858884604Q426.1497068198728 51.35714180025704 424.13130590925994 57.48701615767045Q422.11290499864714 63.616890515083874 419.9343330416328 69.34524602188176Q417.7557610846184 75.07360152867966 415.53389908431404 80.28463784750406Q413.31203708400966 85.49567416632846 411.06095483292745 90.0Z M456.5328332149621 91.03679970745401Q448.54148699607686 91.03679970745401 443.5090141791802 87.97835709212663Q438.4765413622835 84.91991447679925 436.08368052032597 79.61038961038962Q433.6908196783685 74.30086474397999 433.6908196783685 67.57575757575758Q433.6908196783685 59.640690526921 436.64645108309657 54.37553636955492Q439.60208248782465 49.11038221218885 444.28823495840095 46.47077023724973Q448.97438742897725 43.83115826231061 454.1648699607684 43.83115826231061Q460.07397143871754 43.83115826231061 464.3694328539299 46.29652939833604Q468.6648942691423 48.76190053436147 471.01446506780974 53.75216397372159Q473.36403586647725 58.742427413081714 473.36403586647725 66.33117411559795Q473.36403586647725 67.10607223180466 473.306676030675 68.09742056446159Q473.2493161948728 69.08876889711851 473.16273610829273 69.8939679298566H442.55453530844153Q442.9289952397862 76.33115297788149 446.54046128838604 79.92528609899216Q450.1519273369859 83.51941922010282 457.32938692167204 83.51941922010282Q461.463575487013 83.51941922010282 464.4744053960362 82.7531875676407Q467.4852353050595 81.98695591517857 469.0068919524486 81.26833696902057L470.32941017316017 88.35497835497836Q468.83589311079544 89.16017738771644 464.9917245840097 90.09848854758522Q461.147556057224 91.03679970745401 456.5328332149621 91.03679970745401ZM442.671416311553 63.458859662472946H464.8704575047348Q464.78387741815476 59.77490445752164 463.56743354301943 56.99461569517722Q462.35098966788416 54.21432693283279 460.0501333789908 52.65264337713069Q457.7492770900974 51.09095982142858 454.27958963237285 51.09095982142858Q450.75146167309254 51.09095982142858 448.2460636287541 52.84311534006359Q445.7406655844156 54.5952708586986 444.3499808703666 57.40477987182089Q442.95929615631763 60.21428888494319 442.671416311553 63.458859662472946Z" fill="#0F172A"/>
</svg>
